<mxfile host="app.diagrams.net" agent="Mozilla/5.0 (Windows NT 10.0; Win64; x64) AppleWebKit/537.36 (KHTML, like Gecko) Chrome/122.0.0.0 Safari/537.36" version="24.8.4">
  <diagram id="eYNzjvLGSIcZdauwiKQk" name="Page-1">
    <mxGraphModel dx="1434" dy="858" grid="1" gridSize="10" guides="1" tooltips="1" connect="1" arrows="1" fold="1" page="1" pageScale="1" pageWidth="850" pageHeight="1100" math="0" shadow="0">
      <root>
        <mxCell id="0" />
        <mxCell id="1" parent="0" />
        <mxCell id="KxbTWqHgd2pm1oiI6Raj-2" value="Raspberry Pi 5" style="swimlane;whiteSpace=wrap;html=1;container=0;" vertex="1" parent="1">
          <mxGeometry x="190" y="145" width="150" height="275" as="geometry" />
        </mxCell>
        <mxCell id="KxbTWqHgd2pm1oiI6Raj-3" value="Nucleo" style="swimlane;whiteSpace=wrap;html=1;container=0;" vertex="1" parent="1">
          <mxGeometry x="490" y="145" width="150" height="275" as="geometry" />
        </mxCell>
        <mxCell id="KxbTWqHgd2pm1oiI6Raj-4" value="Send Response" style="rounded=1;whiteSpace=wrap;html=1;fillColor=#dae8fc;strokeColor=#6c8ebf;" vertex="1" parent="KxbTWqHgd2pm1oiI6Raj-3">
          <mxGeometry x="32.5" y="222.5" width="85" height="32.5" as="geometry" />
        </mxCell>
        <mxCell id="KxbTWqHgd2pm1oiI6Raj-5" style="edgeStyle=orthogonalEdgeStyle;rounded=0;orthogonalLoop=1;jettySize=auto;html=1;exitX=1;exitY=0.5;exitDx=0;exitDy=0;entryX=0;entryY=0.5;entryDx=0;entryDy=0;" edge="1" parent="1" source="KxbTWqHgd2pm1oiI6Raj-12" target="KxbTWqHgd2pm1oiI6Raj-21">
          <mxGeometry relative="1" as="geometry" />
        </mxCell>
        <mxCell id="KxbTWqHgd2pm1oiI6Raj-6" value="[cmd, axis, pos1, pos2]" style="edgeLabel;html=1;align=center;verticalAlign=middle;resizable=0;points=[];" vertex="1" connectable="0" parent="KxbTWqHgd2pm1oiI6Raj-5">
          <mxGeometry x="0.0933" y="-1" relative="1" as="geometry">
            <mxPoint x="-9" y="-1" as="offset" />
          </mxGeometry>
        </mxCell>
        <mxCell id="KxbTWqHgd2pm1oiI6Raj-7" style="edgeStyle=orthogonalEdgeStyle;rounded=0;orthogonalLoop=1;jettySize=auto;html=1;exitX=0;exitY=0.5;exitDx=0;exitDy=0;entryX=1;entryY=0.5;entryDx=0;entryDy=0;" edge="1" parent="1" source="KxbTWqHgd2pm1oiI6Raj-23" target="KxbTWqHgd2pm1oiI6Raj-16">
          <mxGeometry relative="1" as="geometry" />
        </mxCell>
        <mxCell id="KxbTWqHgd2pm1oiI6Raj-8" value="[ack, 0, 0, 0]" style="edgeLabel;html=1;align=center;verticalAlign=middle;resizable=0;points=[];" vertex="1" connectable="0" parent="KxbTWqHgd2pm1oiI6Raj-7">
          <mxGeometry x="0.0042" relative="1" as="geometry">
            <mxPoint x="-2" y="-2" as="offset" />
          </mxGeometry>
        </mxCell>
        <mxCell id="KxbTWqHgd2pm1oiI6Raj-9" style="edgeStyle=orthogonalEdgeStyle;rounded=0;orthogonalLoop=1;jettySize=auto;html=1;exitX=0;exitY=0.5;exitDx=0;exitDy=0;entryX=1;entryY=0.5;entryDx=0;entryDy=0;" edge="1" parent="1" source="KxbTWqHgd2pm1oiI6Raj-4" target="KxbTWqHgd2pm1oiI6Raj-19">
          <mxGeometry relative="1" as="geometry" />
        </mxCell>
        <mxCell id="KxbTWqHgd2pm1oiI6Raj-10" value="[data, axis, pos1, pos2]" style="edgeLabel;html=1;align=center;verticalAlign=middle;resizable=0;points=[];" vertex="1" connectable="0" parent="KxbTWqHgd2pm1oiI6Raj-9">
          <mxGeometry x="-0.0308" y="-1" relative="1" as="geometry">
            <mxPoint x="-3" y="1" as="offset" />
          </mxGeometry>
        </mxCell>
        <mxCell id="KxbTWqHgd2pm1oiI6Raj-11" style="edgeStyle=orthogonalEdgeStyle;rounded=0;orthogonalLoop=1;jettySize=auto;html=1;exitX=0.5;exitY=1;exitDx=0;exitDy=0;entryX=0.5;entryY=0;entryDx=0;entryDy=0;" edge="1" parent="1" source="KxbTWqHgd2pm1oiI6Raj-12" target="KxbTWqHgd2pm1oiI6Raj-14">
          <mxGeometry relative="1" as="geometry" />
        </mxCell>
        <mxCell id="KxbTWqHgd2pm1oiI6Raj-12" value="Send axis and coordinate" style="rounded=1;whiteSpace=wrap;html=1;fillColor=#dae8fc;strokeColor=#6c8ebf;" vertex="1" parent="1">
          <mxGeometry x="220" y="180" width="90" height="40" as="geometry" />
        </mxCell>
        <mxCell id="KxbTWqHgd2pm1oiI6Raj-13" style="edgeStyle=orthogonalEdgeStyle;rounded=0;orthogonalLoop=1;jettySize=auto;html=1;exitX=0.5;exitY=1;exitDx=0;exitDy=0;entryX=0.5;entryY=0;entryDx=0;entryDy=0;" edge="1" parent="1" source="KxbTWqHgd2pm1oiI6Raj-14" target="KxbTWqHgd2pm1oiI6Raj-16">
          <mxGeometry relative="1" as="geometry" />
        </mxCell>
        <mxCell id="KxbTWqHgd2pm1oiI6Raj-14" value="Wait for Ack" style="rounded=1;whiteSpace=wrap;html=1;fillColor=#f8cecc;strokeColor=#b85450;" vertex="1" parent="1">
          <mxGeometry x="225" y="240" width="80" height="20" as="geometry" />
        </mxCell>
        <mxCell id="KxbTWqHgd2pm1oiI6Raj-15" style="edgeStyle=orthogonalEdgeStyle;rounded=0;orthogonalLoop=1;jettySize=auto;html=1;exitX=0.5;exitY=1;exitDx=0;exitDy=0;entryX=0.5;entryY=0;entryDx=0;entryDy=0;" edge="1" parent="1" source="KxbTWqHgd2pm1oiI6Raj-16" target="KxbTWqHgd2pm1oiI6Raj-18">
          <mxGeometry relative="1" as="geometry" />
        </mxCell>
        <mxCell id="KxbTWqHgd2pm1oiI6Raj-16" value="Receive Ack" style="rounded=1;whiteSpace=wrap;html=1;fillColor=#dae8fc;strokeColor=#6c8ebf;" vertex="1" parent="1">
          <mxGeometry x="225" y="280" width="80" height="20" as="geometry" />
        </mxCell>
        <mxCell id="KxbTWqHgd2pm1oiI6Raj-17" style="edgeStyle=orthogonalEdgeStyle;rounded=0;orthogonalLoop=1;jettySize=auto;html=1;exitX=0.5;exitY=1;exitDx=0;exitDy=0;entryX=0.5;entryY=0;entryDx=0;entryDy=0;" edge="1" parent="1" source="KxbTWqHgd2pm1oiI6Raj-18" target="KxbTWqHgd2pm1oiI6Raj-19">
          <mxGeometry relative="1" as="geometry" />
        </mxCell>
        <mxCell id="KxbTWqHgd2pm1oiI6Raj-18" value="Wait for response" style="rounded=1;whiteSpace=wrap;html=1;fillColor=#f8cecc;strokeColor=#b85450;" vertex="1" parent="1">
          <mxGeometry x="225" y="320" width="80" height="30" as="geometry" />
        </mxCell>
        <mxCell id="KxbTWqHgd2pm1oiI6Raj-19" value="Receive Response" style="rounded=1;whiteSpace=wrap;html=1;fillColor=#dae8fc;strokeColor=#6c8ebf;" vertex="1" parent="1">
          <mxGeometry x="225" y="370" width="80" height="30" as="geometry" />
        </mxCell>
        <mxCell id="KxbTWqHgd2pm1oiI6Raj-20" style="edgeStyle=orthogonalEdgeStyle;rounded=0;orthogonalLoop=1;jettySize=auto;html=1;exitX=0.5;exitY=1;exitDx=0;exitDy=0;entryX=0.5;entryY=0;entryDx=0;entryDy=0;" edge="1" parent="1" source="KxbTWqHgd2pm1oiI6Raj-21" target="KxbTWqHgd2pm1oiI6Raj-23">
          <mxGeometry relative="1" as="geometry" />
        </mxCell>
        <mxCell id="KxbTWqHgd2pm1oiI6Raj-21" value="Receive axis and coordinate" style="rounded=1;whiteSpace=wrap;html=1;fillColor=#dae8fc;strokeColor=#6c8ebf;" vertex="1" parent="1">
          <mxGeometry x="510" y="177.5" width="110" height="40" as="geometry" />
        </mxCell>
        <mxCell id="KxbTWqHgd2pm1oiI6Raj-22" style="edgeStyle=orthogonalEdgeStyle;rounded=0;orthogonalLoop=1;jettySize=auto;html=1;exitX=0.5;exitY=1;exitDx=0;exitDy=0;entryX=0.5;entryY=0;entryDx=0;entryDy=0;" edge="1" parent="1" source="KxbTWqHgd2pm1oiI6Raj-23" target="KxbTWqHgd2pm1oiI6Raj-25">
          <mxGeometry relative="1" as="geometry" />
        </mxCell>
        <mxCell id="KxbTWqHgd2pm1oiI6Raj-23" value="Send Ack" style="rounded=1;whiteSpace=wrap;html=1;fillColor=#dae8fc;strokeColor=#6c8ebf;" vertex="1" parent="1">
          <mxGeometry x="530" y="277.5" width="70" height="20" as="geometry" />
        </mxCell>
        <mxCell id="KxbTWqHgd2pm1oiI6Raj-24" style="edgeStyle=orthogonalEdgeStyle;rounded=0;orthogonalLoop=1;jettySize=auto;html=1;exitX=0.5;exitY=1;exitDx=0;exitDy=0;entryX=0.5;entryY=0;entryDx=0;entryDy=0;" edge="1" parent="1" source="KxbTWqHgd2pm1oiI6Raj-25" target="KxbTWqHgd2pm1oiI6Raj-4">
          <mxGeometry relative="1" as="geometry" />
        </mxCell>
        <mxCell id="KxbTWqHgd2pm1oiI6Raj-25" value="Move axis" style="rounded=1;whiteSpace=wrap;html=1;fillColor=#dae8fc;strokeColor=#6c8ebf;" vertex="1" parent="1">
          <mxGeometry x="530" y="317.5" width="70" height="20" as="geometry" />
        </mxCell>
        <mxCell id="KxbTWqHgd2pm1oiI6Raj-26" value="" style="swimlane;startSize=0;dashed=1;" vertex="1" parent="1">
          <mxGeometry x="160" y="100" width="510" height="350" as="geometry" />
        </mxCell>
        <mxCell id="KxbTWqHgd2pm1oiI6Raj-27" value="&lt;b&gt;&lt;u&gt;&lt;font style=&quot;font-size: 19px;&quot;&gt;Command Protocol&lt;/font&gt;&lt;/u&gt;&lt;/b&gt;" style="text;html=1;align=center;verticalAlign=middle;resizable=0;points=[];autosize=1;strokeColor=none;fillColor=none;" vertex="1" parent="KxbTWqHgd2pm1oiI6Raj-26">
          <mxGeometry x="155" width="200" height="40" as="geometry" />
        </mxCell>
      </root>
    </mxGraphModel>
  </diagram>
</mxfile>
